<svg xmlns="http://www.w3.org/2000/svg" xmlns:xlink="http://www.w3.org/1999/xlink" aria-hidden="true" role="img" width="64" height="64" viewBox="0 0 24 24" style="color: rgb(229, 67, 144); --darkreader-inline-color: var(--darkreader-text-e54390, #e74f97);"><path fill="currentColor" d="M6 10v5h12v-5Zm7 3H7v-1h6Zm1.5 0a.5.5 0 1 1 .5-.5a.5.5 0 0 1-.5.5m2 0a.5.5 0 1 1 .5-.5a.5.5 0 0 1-.5.5M6 17v5h12v-5Zm7 3H7v-1h6Zm1.5 0a.5.5 0 1 1 .5-.5a.5.5 0 0 1-.5.5m2 0a.5.5 0 1 1 .5-.5a.5.5 0 0 1-.5.5"></path><path fill="currentColor" d="M22.965 8a5.35 5.35 0 0 0-3.615-1.96a7.492 7.492 0 0 0-14-2A6 6 0 0 0 4 4.365A5.98 5.98 0 0 0 4 15.65V8h16v7.9a5 5 0 0 0 4-4.9a4.9 4.9 0 0 0-1.035-3"></path></svg>